<svg id="logo" xmlns="http://www.w3.org/2000/svg" viewBox="0 0 300 300">
<defs><style>.cls-1{fill:#d3d3d3;}</style></defs>
<path class="cls-1" d="M297.98848,120.83325c-.892-6.03036-5.86531,7.58231-9.07373,5.12164-3.07008-8.54754-2.95567.38842-6.73176,3.2742-15.35678,30.92912,6.62066,15.39479-27.7687,43.74417-.03816,11.57164-27.63576,29.75781-23.05884,8.848-1.67358-23.06627-35.2233-21.0993-45.9251-4.904-1.39188,13.87205,3.25926,21.24028,16.57646,26.45272,11.47683,12.62169-29.13148,7.8558-36.28876,10.83585a25.69779,25.69779,0,0,1-31.43239.00032c-7.26-2.914-47.67574,1.73566-36.29654-10.83742,48.69586-18.65283-21.39094-64.14657-29.34831-21.54544-.30835,6.66126,3.388,11.73331-6.7565,8.85091-8.31967-2.23862-14.43689-9.37225-16.30461-17.697C43.84954,165.67,27.865,162.62423,25.05809,153.575c-5.67934-9.1851,3.31065-15.65285-7.24148-24.3464-3.563-2.77357-3.88647-11.93949-6.73091-3.27314-3.20887,2.46008-8.18222-11.15259-9.07418-5.12223-4.92514,25.43531.62445,47.243,14.639,68.153-2.25681,20.68391,32.26274,48.92932,41.63414,75.07955,24.0854,22.69435,61.28275,7.61045,90.3695,21.24161,30.13271-12.28766,68.10294.92219,93.06748-21.23072,7.36142-29.23523,44.96179-45.68125,40.18639-77.08656C296.89957,178.32161,302.61678,142.61345,297.98848,120.83325Z"/><path class="cls-1" d="M283.83265,107.46812c-5.41174-7.82576,6.5784-16.65663-4.06462-19.48875C230.08063,61.52634,233.38148,137.10493,283.83265,107.46812Z"/><path class="cls-1" d="M200.01726,40.58194c8.31753,3.59054,28.74094-1.93421,22.84141-13.53233,1.60207,9.54337-10.54837-2.516-15.52187-1.127C206.96006,1.4758,170.62747,33.65043,200.01726,40.58194Z"/><path class="cls-1" d="M53.44654,120.10683C16.0414,137.23849,52.06577,171.90536,80.75605,156.322c6.35294-11.95463-16.53025-19.33928-16.70462-26.83826C64.646,106.15115,77.22566,99.47,98.27729,108.415c41.48361,6.367,24.26086-38.4083,53.05672-33.93046,6.62575-.68053,14.131,3.35561,16.12959,10.05494,9.88636,52.8261,68.26451-8.76234,68.48419,44.94311-.3745,7.2004-15.1275,10.5684-17.38357,20.913,10.929,28.04059,74.38284-8.04536,27.985-30.28839-56.22223-27.2544,56.09982-63.49933-14.131-74.24291-23.69989,6.57582-54.50793,8.62548-57.77311-23.40753-11.8379-11.78516-37.44238-11.69674-49.28886-.001-3.22378,32.10443-34.15042,29.92669-57.774,23.40645C-2.6447,56.60567,109.666,92.85723,53.44654,120.10683Z"/><path class="cls-1" d="M17.91275,101.31551c27.76108,48.71367,66.83962-42.46593,2.31356-13.33233C10.50888,89.60851,19.024,96.632,17.91275,101.31551Z"/><path class="cls-1" d="M99.98274,40.58194C129.36755,33.64388,93.045,1.479,92.66243,25.91914c-4.97969-1.38829-17.11224,10.6766-15.52106,1.13225C71.2418,38.64773,91.66521,44.17248,99.98274,40.58194Z"/>
</svg>